<svg aria-hidden="true" style="position: absolute; width: 0; height: 0; overflow: hidden;" version="1.1" xmlns="http://www.w3.org/2000/svg" xmlns:xlink="http://www.w3.org/1999/xlink">
<defs>
<symbol id="icon-arrow-bar-down" viewBox="0 0 32 32">
<path d="M2 7c0-0.552 0.448-1 1-1v0h26c0.552 0 1 0.448 1 1s-0.448 1-1 1v0h-26c-0.552 0-1-0.448-1-1v0zM16 12c0.552 0 1 0.448 1 1v0 11.586l4.292-4.294c0.181-0.181 0.431-0.293 0.708-0.293 0.553 0 1.001 0.448 1.001 1.001 0 0.276-0.112 0.527-0.293 0.708v0l-6 6c-0.181 0.181-0.431 0.294-0.708 0.294s-0.527-0.112-0.708-0.294l-6-6c-0.181-0.181-0.293-0.431-0.293-0.708 0-0.553 0.448-1.001 1.001-1.001 0.277 0 0.527 0.112 0.708 0.293v0l4.292 4.294v-11.586c0-0.552 0.448-1 1-1v0z"></path>
</symbol>
<symbol id="icon-arrow-bar-up" viewBox="0 0 32 32">
<path d="M16 20c0.552 0 1-0.448 1-1v0-11.586l4.292 4.294c0.181 0.181 0.431 0.293 0.708 0.293 0.553 0 1.001-0.448 1.001-1.001 0-0.277-0.112-0.527-0.293-0.708v0l-6-6c-0.181-0.181-0.431-0.294-0.708-0.294s-0.527 0.112-0.708 0.294l-6 6c-0.181 0.181-0.293 0.431-0.293 0.708 0 0.553 0.448 1.001 1.001 1.001 0.277 0 0.527-0.112 0.708-0.293v0l4.292-4.294v11.586c0 0.552 0.448 1 1 1v0zM2 25c0-0.552 0.448-1 1-1v0h26c0.552 0 1 0.448 1 1s-0.448 1-1 1v0h-26c-0.552 0-1-0.448-1-1v0z"></path>
</symbol>
<symbol id="icon-basket-fill" viewBox="0 0 32 32">
<path d="M10.142 2.486c0.178-0.293 0.495-0.486 0.858-0.486 0.552 0 1 0.448 1 1 0 0.19-0.053 0.367-0.145 0.518l0.002-0.004-5.092 8.486h18.468l-5.094-8.486c-0.089-0.147-0.142-0.324-0.142-0.514 0-0.552 0.448-1 1-1 0.363 0 0.68 0.193 0.855 0.482l0.003 0.004 5.71 9.514h3.434c0.552 0 1 0.448 1 1v0 4c0 0.552-0.448 1-1 1v0h-1v10c0 2.209-1.791 4-4 4v0h-20c-2.209 0-4-1.791-4-4v0-10h-1c-0.552 0-1-0.448-1-1v0-4c0-0.552 0.448-1 1-1v0h3.434zM7 21c0-0.552-0.448-1-1-1s-1 0.448-1 1v0 6c0 0.552 0.448 1 1 1s1-0.448 1-1v0zM12 21c0-0.552-0.448-1-1-1s-1 0.448-1 1v0 6c0 0.552 0.448 1 1 1s1-0.448 1-1v0zM17 21c0-0.552-0.448-1-1-1s-1 0.448-1 1v0 6c0 0.552 0.448 1 1 1s1-0.448 1-1v0zM22 21c0-0.552-0.448-1-1-1s-1 0.448-1 1v0 6c0 0.552 0.448 1 1 1s1-0.448 1-1v0zM27 21c0-0.552-0.448-1-1-1s-1 0.448-1 1v0 6c0 0.552 0.448 1 1 1s1-0.448 1-1v0z"></path>
</symbol>
<symbol id="icon-calendar-heart-fill" viewBox="0 0 32 32">
<path d="M8 1c0-0.552-0.448-1-1-1s-1 0.448-1 1v0 1h-2c-2.209 0-4 1.791-4 4v0 2h32v-2c0-2.209-1.791-4-4-4v0h-2v-1c0-0.552-0.448-1-1-1s-1 0.448-1 1v0 1h-16zM32 28v-18h-32v18c0 2.209 1.791 4 4 4v0h24c2.209 0 4-1.791 4-4v0zM16 15.986c3.328-3.422 11.65 2.566 0 10.264-11.65-7.7-3.328-13.686 0-10.264z"></path>
</symbol>
<symbol id="icon-capsule-pill" viewBox="0 0 32 32">
<path d="M22.040 10.728c1.066-1.082 1.723-2.569 1.723-4.208 0-3.314-2.686-6-6-6-1.639 0-3.125 0.658-4.208 1.723l-11.313 11.313c-1.086 1.086-1.758 2.586-1.758 4.243 0 3.314 2.687 6 6 6 1.657 0 3.157-0.672 4.243-1.758v0l11.314-11.314zM9.214 9.414l5.756-5.758c0.724-0.724 1.724-1.172 2.829-1.172 2.21 0 4.001 1.791 4.001 4.001 0 1.105-0.448 2.105-1.172 2.829l-5.758 5.758zM24 16c4.418 0 8 3.582 8 8s-3.582 8-8 8v0c-4.418 0-8-3.582-8-8s3.582-8 8-8v0zM23 18.084c-2.859 0.494-5.005 2.955-5.005 5.917s2.147 5.423 4.97 5.912l0.036 0.005zM25 29.918c2.859-0.494 5.005-2.955 5.005-5.917s-2.147-5.423-4.97-5.912l-0.036-0.005z"></path>
</symbol>
<symbol id="icon-cart-x" viewBox="0 0 32 32">
<path d="M14.708 11.292c-0.181-0.181-0.431-0.293-0.708-0.293-0.553 0-1.001 0.448-1.001 1.001 0 0.277 0.112 0.527 0.293 0.708v0l2.294 2.292-2.294 2.292c-0.181 0.181-0.293 0.431-0.293 0.708 0 0.553 0.448 1.001 1.001 1.001 0.277 0 0.527-0.112 0.708-0.293v0l2.292-2.294 2.292 2.294c0.181 0.181 0.431 0.293 0.708 0.293 0.553 0 1.001-0.448 1.001-1.001 0-0.276-0.112-0.527-0.293-0.708v0l-2.294-2.292 2.294-2.292c0.181-0.181 0.293-0.431 0.293-0.708 0-0.553-0.448-1.001-1.001-1.001-0.276 0-0.527 0.112-0.708 0.293v0l-2.292 2.294z"></path>
<path d="M1 2c-0.552 0-1 0.448-1 1s0.448 1 1 1v0h2.22l0.802 3.214 2.996 15.97c0.090 0.467 0.495 0.816 0.982 0.816h2c-2.209 0-4 1.791-4 4s1.791 4 4 4v0c2.209 0 4-1.791 4-4s-1.791-4-4-4v0h14c-2.209 0-4 1.791-4 4s1.791 4 4 4v0c2.209 0 4-1.791 4-4s-1.791-4-4-4v0h2c0.487-0 0.892-0.349 0.981-0.81l0.001-0.006 3-16c0.011-0.055 0.017-0.119 0.017-0.184 0-0.552-0.447-0.999-0.999-1h-23.22l-0.81-3.242c-0.112-0.439-0.504-0.758-0.97-0.758v0zM8.83 22l-2.626-14h21.592l-2.626 14zM12 28c0 1.105-0.895 2-2 2s-2-0.895-2-2v0c0-1.105 0.895-2 2-2s2 0.895 2 2v0zM26 28c0 1.105-0.895 2-2 2s-2-0.895-2-2v0c0-1.105 0.895-2 2-2s2 0.895 2 2v0z"></path>
</symbol>
<symbol id="icon-cart-check" viewBox="0 0 32 32">
<path d="M22.708 12.708c0.181-0.181 0.293-0.431 0.293-0.708 0-0.553-0.448-1.001-1.001-1.001-0.276 0-0.527 0.112-0.708 0.293v0l-5.292 5.294-2.292-2.294c-0.181-0.181-0.431-0.293-0.708-0.293-0.553 0-1.001 0.448-1.001 1.001 0 0.277 0.112 0.527 0.293 0.708v0l3 3c0.181 0.181 0.431 0.294 0.708 0.294s0.527-0.112 0.708-0.294l0-0z"></path>
<path d="M1 2c-0.552 0-1 0.448-1 1s0.448 1 1 1v0h2.22l0.802 3.214 2.996 15.97c0.090 0.467 0.495 0.816 0.982 0.816h2c-2.209 0-4 1.791-4 4s1.791 4 4 4v0c2.209 0 4-1.791 4-4s-1.791-4-4-4v0h14c-2.209 0-4 1.791-4 4s1.791 4 4 4v0c2.209 0 4-1.791 4-4s-1.791-4-4-4v0h2c0.487-0 0.892-0.349 0.981-0.81l0.001-0.006 3-16c0.011-0.055 0.017-0.119 0.017-0.184 0-0.552-0.447-0.999-0.999-1h-23.22l-0.81-3.242c-0.112-0.439-0.504-0.758-0.97-0.758v0zM8.83 22l-2.626-14h21.592l-2.626 14zM12 28c0 1.105-0.895 2-2 2s-2-0.895-2-2v0c0-1.105 0.895-2 2-2s2 0.895 2 2v0zM26 28c0 1.105-0.895 2-2 2s-2-0.895-2-2v0c0-1.105 0.895-2 2-2s2 0.895 2 2v0z"></path>
</symbol>
<symbol id="icon-clipboard2-check" viewBox="0 0 32 32">
<path d="M19 0c0.552 0 1 0.448 1 1v0c0 0.552 0.448 1 1 1v0c0.552 0 1 0.448 1 1v0 1c0 0.552-0.448 1-1 1v0h-10c-0.552 0-1-0.448-1-1v0-1c0-0.552 0.448-1 1-1v0c0.552 0 1-0.448 1-1v0c0-0.552 0.448-1 1-1v0z"></path>
<path d="M6 5c0-0.552 0.448-1 1-1v0h1c0.552 0 1-0.448 1-1s-0.448-1-1-1v0h-1c-1.657 0-3 1.343-3 3v0 24c0 1.657 1.343 3 3 3v0h18c1.657 0 3-1.343 3-3v0-24c0-1.657-1.343-3-3-3v0h-1c-0.552 0-1 0.448-1 1s0.448 1 1 1v0h1c0.552 0 1 0.448 1 1v0 24c0 0.552-0.448 1-1 1v0h-18c-0.552 0-1-0.448-1-1v0z"></path>
<path d="M21.708 15.708c0.181-0.181 0.293-0.431 0.293-0.708 0-0.553-0.448-1.001-1.001-1.001-0.276 0-0.527 0.112-0.708 0.293v0l-5.292 5.294-2.292-2.294c-0.181-0.181-0.431-0.293-0.708-0.293-0.553 0-1.001 0.448-1.001 1.001 0 0.276 0.112 0.527 0.293 0.708v0l3 3c0.181 0.181 0.431 0.294 0.708 0.294s0.527-0.112 0.708-0.294l0-0z"></path>
</symbol>
<symbol id="icon-basket" viewBox="0 0 32 32">
<path d="M11.514 2.142c0.293 0.178 0.486 0.495 0.486 0.858 0 0.19-0.053 0.367-0.145 0.518l0.002-0.004-5.092 8.486h18.468l-5.094-8.486c-0.089-0.147-0.142-0.324-0.142-0.514 0-0.552 0.448-1 1-1 0.363 0 0.68 0.193 0.855 0.482l0.003 0.004 5.71 9.514h2.434c1.105 0 2 0.895 2 2v0 2c0 1.105-0.895 2-2 2v0 9c0 2.761-2.239 5-5 5v0h-18c-2.761 0-5-2.239-5-5v0-9c-1.105 0-2-0.895-2-2v0-2c0-1.105 0.895-2 2-2v0h2.434l5.706-9.514c0.178-0.293 0.495-0.486 0.858-0.486 0.19 0 0.367 0.053 0.518 0.145l-0.004-0.002zM4 18v9c0 1.657 1.343 3 3 3v0h18c1.657 0 3-1.343 3-3v0-9zM2 14v2h28v-2zM8 20c0.552 0 1 0.448 1 1v0 6c0 0.552-0.448 1-1 1s-1-0.448-1-1v0-6c0-0.552 0.448-1 1-1v0zM12 20c0.552 0 1 0.448 1 1v0 6c0 0.552-0.448 1-1 1s-1-0.448-1-1v0-6c0-0.552 0.448-1 1-1v0zM16 20c0.552 0 1 0.448 1 1v0 6c0 0.552-0.448 1-1 1s-1-0.448-1-1v0-6c0-0.552 0.448-1 1-1v0zM20 20c0.552 0 1 0.448 1 1v0 6c0 0.552-0.448 1-1 1s-1-0.448-1-1v0-6c0-0.552 0.448-1 1-1v0zM24 20c0.552 0 1 0.448 1 1v0 6c0 0.552-0.448 1-1 1s-1-0.448-1-1v0-6c0-0.552 0.448-1 1-1v0z"></path>
</symbol>
<symbol id="icon-balloon-heart" viewBox="0 0 32 32">
<path d="M16 4.84l-1.434-1.474c-2.26-2.322-6.486-1.554-8.020 1.44-0.7 1.37-0.902 3.414 0.472 6.124 1.302 2.576 4.022 5.71 8.982 9.154 4.958-3.446 7.678-6.58 8.982-9.154 1.374-2.71 1.174-4.754 0.472-6.122-1.534-2.996-5.76-3.764-8.020-1.442zM15.020 21.84c-21.56-14.88-6-26.31 0.718-20.126q0.136 0.124 0.264 0.258 0.13-0.134 0.264-0.258c6.72-6.184 22.274 5.248 0.714 20.126l0.47 0.936c0.033 0.065 0.053 0.142 0.053 0.224 0 0.277-0.224 0.501-0.501 0.501-0.195 0-0.364-0.111-0.447-0.274l-0.001-0.003-0.016-0.034c0.016 0.22 0.040 0.404 0.074 0.58 0.108 0.54 0.322 0.976 0.838 2.006 0.576 1.156 0.47 2.3 0.152 3.258-0.314 0.938-0.844 1.734-1.176 2.23l-0.008 0.014c-0.091 0.135-0.243 0.222-0.416 0.222-0.276 0-0.5-0.224-0.5-0.5 0-0.104 0.031-0.2 0.085-0.28l-0.001 0.002c0.336-0.504 0.8-1.2 1.066-2.006 0.266-0.792 0.326-1.648-0.098-2.492l-0.026-0.056c-0.48-0.96-0.76-1.516-0.896-2.204-0.053-0.263-0.091-0.573-0.104-0.888l-0-0.012-0.080 0.16c-0.083 0.167-0.253 0.279-0.449 0.279-0.276 0-0.5-0.224-0.5-0.5 0-0.083 0.020-0.161 0.056-0.23l-0.001 0.003 0.47-0.936zM12.026 4.12c-1.298-0.36-2.966 0.166-3.7 1.596-0.262 0.516-0.49 1.378-0.16 2.67 0.126 0.488 0.828 0.396 0.974-0.086 0.42-1.394 1.254-2.894 2.718-3.384 0.434-0.146 0.608-0.674 0.168-0.796z"></path>
</symbol>
<symbol id="icon-normal" viewBox="0 0 32 32">
<path stroke-linejoin="round" stroke-linecap="round" stroke-miterlimit="4" stroke-width="2.6667" d="M27.787 6.147c-0.681-0.681-1.49-1.222-2.38-1.591s-1.844-0.559-2.807-0.559c-0.963 0-1.917 0.19-2.807 0.559s-1.698 0.909-2.38 1.591l-1.413 1.413-1.413-1.413c-1.376-1.376-3.241-2.148-5.187-2.148s-3.811 0.773-5.187 2.148c-1.376 1.376-2.148 3.241-2.148 5.187s0.773 3.811 2.148 5.187l11.787 11.787 11.787-11.787c0.681-0.681 1.222-1.49 1.591-2.38s0.559-1.844 0.559-2.807c0-0.963-0.19-1.917-0.559-2.807s-0.909-1.699-1.591-2.38z"></path>
</symbol>

<symbol id="icon-arrow-down-square" viewBox="0 0 32 32">
<path d="M30 4c0-1.105-0.895-2-2-2v0h-24c-1.105 0-2 0.895-2 2v0 24c0 1.105 0.895 2 2 2v0h24c1.105 0 2-0.895 2-2v0zM0 4c0-2.209 1.791-4 4-4v0h24c2.209 0 4 1.791 4 4v0 24c0 2.209-1.791 4-4 4v0h-24c-2.209 0-4-1.791-4-4v0zM17 9c0-0.552-0.448-1-1-1s-1 0.448-1 1v0 11.586l-4.292-4.294c-0.181-0.181-0.431-0.293-0.708-0.293-0.553 0-1.001 0.448-1.001 1.001 0 0.276 0.112 0.527 0.293 0.708v0l6 6c0.181 0.181 0.431 0.294 0.708 0.294s0.527-0.112 0.708-0.294l6-6c0.181-0.181 0.293-0.431 0.293-0.708 0-0.553-0.448-1.001-1.001-1.001-0.276 0-0.527 0.112-0.708 0.293v0l-4.292 4.294z"></path>
</symbol>
<symbol id="icon-arrow-up-square" viewBox="0 0 32 32">
<path d="M30 4c0-1.105-0.895-2-2-2v0h-24c-1.105 0-2 0.895-2 2v0 24c0 1.105 0.895 2 2 2v0h24c1.105 0 2-0.895 2-2v0zM0 4c0-2.209 1.791-4 4-4v0h24c2.209 0 4 1.791 4 4v0 24c0 2.209-1.791 4-4 4v0h-24c-2.209 0-4-1.791-4-4v0zM17 23c0 0.552-0.448 1-1 1s-1-0.448-1-1v0-11.586l-4.292 4.294c-0.181 0.181-0.431 0.293-0.708 0.293-0.553 0-1.001-0.448-1.001-1.001 0-0.277 0.112-0.527 0.293-0.708v0l6-6c0.181-0.181 0.431-0.294 0.708-0.294s0.527 0.112 0.708 0.294l6 6c0.181 0.181 0.293 0.431 0.293 0.708 0 0.553-0.448 1.001-1.001 1.001-0.276 0-0.527-0.112-0.708-0.293v0l-4.292-4.294z"></path>
</symbol>
</defs>
</svg>
